<?xml version="1.0" encoding="UTF-8" standalone="no"?>
<!-- Created with Inkscape (http://www.inkscape.org/) -->

<svg
   xmlns:dc="http://purl.org/dc/elements/1.1/"
   xmlns:cc="http://creativecommons.org/ns#"
   xmlns:rdf="http://www.w3.org/1999/02/22-rdf-syntax-ns#"
   xmlns:svg="http://www.w3.org/2000/svg"
   xmlns="http://www.w3.org/2000/svg"
   xmlns:sodipodi="http://sodipodi.sourceforge.net/DTD/sodipodi-0.dtd"
   xmlns:inkscape="http://www.inkscape.org/namespaces/inkscape"
   version="1.1"
   id="svg14293"
   xml:space="preserve"
   width="800"
   height="800"
   viewBox="0 0 800 800"
   sodipodi:docname="lines-and-circles-publicdomainvectors.org.svg"
   inkscape:version="0.92.4 (5da689c313, 2019-01-14)"><metadata
     id="metadata14299"><rdf:RDF><cc:Work
         rdf:about=""><dc:format>image/svg+xml</dc:format><dc:type
           rdf:resource="http://purl.org/dc/dcmitype/StillImage" /><dc:title></dc:title></cc:Work></rdf:RDF></metadata><defs
     id="defs14297"><clipPath
       clipPathUnits="userSpaceOnUse"
       id="clipPath14309"><path
         d="M 0,600 H 600 V 0 H 0 Z"
         id="path14307"
         inkscape:connector-curvature="0" /></clipPath><clipPath
       clipPathUnits="userSpaceOnUse"
       id="clipPath14317"><path
         d="M 131.151,599.455 H 366.709 V 0 H 131.151 Z"
         id="path14315"
         inkscape:connector-curvature="0" /></clipPath><clipPath
       clipPathUnits="userSpaceOnUse"
       id="clipPath14331"><path
         d="M 159.693,599.455 H 342.397 V 0 H 159.693 Z"
         id="path14329"
         inkscape:connector-curvature="0" /></clipPath><clipPath
       clipPathUnits="userSpaceOnUse"
       id="clipPath14345"><path
         d="M 188.623,599.455 H 316.995 V 0 H 188.623 Z"
         id="path14343"
         inkscape:connector-curvature="0" /></clipPath><clipPath
       clipPathUnits="userSpaceOnUse"
       id="clipPath14359"><path
         d="m 218.095,599.455 h 72.234 V 0 h -72.234 z"
         id="path14357"
         inkscape:connector-curvature="0" /></clipPath><clipPath
       clipPathUnits="userSpaceOnUse"
       id="clipPath14373"><path
         d="M 247.566,599.455 H 261.98 V 0 h -14.414 z"
         id="path14371"
         inkscape:connector-curvature="0" /></clipPath><clipPath
       clipPathUnits="userSpaceOnUse"
       id="clipPath14387"><path
         d="m 221.805,599.455 h 65.896 V 0 h -65.896 z"
         id="path14385"
         inkscape:connector-curvature="0" /></clipPath><clipPath
       clipPathUnits="userSpaceOnUse"
       id="clipPath14401"><path
         d="m 190.008,599.455 h 125.41 V 0 h -125.41 z"
         id="path14399"
         inkscape:connector-curvature="0" /></clipPath><clipPath
       clipPathUnits="userSpaceOnUse"
       id="clipPath14415"><path
         d="M 155.915,599.455 H 343.614 V 0 H 155.915 Z"
         id="path14413"
         inkscape:connector-curvature="0" /></clipPath><clipPath
       clipPathUnits="userSpaceOnUse"
       id="clipPath14429"><path
         d="M 119.308,599.455 H 368.487 V 0 H 119.308 Z"
         id="path14427"
         inkscape:connector-curvature="0" /></clipPath><clipPath
       clipPathUnits="userSpaceOnUse"
       id="clipPath14443"><path
         d="M 79.0791,599.455 H 389.713 V 0 H 79.0791 Z"
         id="path14441"
         inkscape:connector-curvature="0" /></clipPath></defs><sodipodi:namedview
     pagecolor="#ffffff"
     bordercolor="#666666"
     borderopacity="1"
     objecttolerance="10"
     gridtolerance="10"
     guidetolerance="10"
     inkscape:pageopacity="0"
     inkscape:pageshadow="2"
     inkscape:window-width="724"
     inkscape:window-height="480"
     id="namedview14295"
     showgrid="false"
     inkscape:zoom="0.295"
     inkscape:cx="400"
     inkscape:cy="400"
     inkscape:window-x="0"
     inkscape:window-y="0"
     inkscape:window-maximized="0"
     inkscape:current-layer="g14301" /><g
     id="g14301"
     inkscape:groupmode="layer"
     inkscape:label="lines-and-circles-publicdomainvectors.org"
     transform="matrix(1.3333333,0,0,-1.3333333,0,800)"><g
       id="g14303"><g
         id="g14305"
         clip-path="url(#clipPath14309)"><g
           id="g14311"><g
             id="g14313" /><g
             id="g14323"><g
               clip-path="url(#clipPath14317)"
               id="g14321"><path
                 d="m 131.151,0 c 7.601,25.638 15.676,50.994 24.171,75.901 16.056,47.044 33.77,92.919 52.249,137.203 34.938,83.589 74.237,165.329 108.006,246.528 18.74,45.157 36.157,92.001 51.132,139.823 h -8.541 C 344.615,552.206 328.768,505.708 311.624,460.697 280.154,378.171 243.236,294.762 210.677,209.8 193.368,164.773 176.866,118.294 161.979,70.789 154.694,47.477 147.762,23.838 141.222,0 Z"
                 style="fill:#fc8d4f;fill-opacity:1;fill-rule:nonzero;stroke:none"
                 id="path14319"
                 inkscape:connector-curvature="0" /></g></g></g><g
           id="g14325"><g
             id="g14327" /><g
             id="g14337"><g
               clip-path="url(#clipPath14331)"
               id="g14335"><path
                 d="m 159.693,0 c 3.675,15.792 7.505,31.487 11.485,47.065 11.257,44.103 23.723,87.52 36.998,129.994 25.135,80.367 54.144,159.912 80.974,240.139 19.246,57.721 37.926,118.348 53.247,182.257 h -8.876 C 320.022,536.074 303.409,475.52 286.166,417.603 261.715,335.823 235.208,254.607 212.371,172.869 200.347,129.729 189.052,85.813 178.924,41.308 175.814,27.608 172.805,13.835 169.905,0 Z"
                 style="fill:#00a0c6;fill-opacity:1;fill-rule:nonzero;stroke:none"
                 id="path14333"
                 inkscape:connector-curvature="0" /></g></g></g><g
           id="g14339"><g
             id="g14341" /><g
             id="g14351"><g
               clip-path="url(#clipPath14345)"
               id="g14349"><path
                 d="m 188.623,0 c 1.96,11.857 3.987,23.661 6.078,35.407 8.229,46.296 17.51,91.95 27.393,136.717 18.802,85.222 40.509,169.6 59.957,253.795 12.973,56.127 25.152,113.98 34.944,173.536 h -9.222 C 299.621,540.431 289.377,482.742 278.378,426.503 261.635,340.574 242.754,254.347 226.534,167.552 216.345,112.804 207.014,56.788 198.995,0 Z"
                 style="fill:#f0037f;fill-opacity:1;fill-rule:nonzero;stroke:none"
                 id="path14347"
                 inkscape:connector-curvature="0" /></g></g></g><g
           id="g14353"><g
             id="g14355" /><g
             id="g14365"><g
               clip-path="url(#clipPath14359)"
               id="g14363"><path
                 d="m 218.095,0 c 4.606,49.3 10.037,99.305 16.143,149.287 10.975,89.775 24.411,181.158 36.233,272.242 7.565,58.365 14.547,117.874 19.858,177.926 H 280.087 C 276.668,539.641 272.022,480.214 266.556,422.051 257.802,328.997 247.756,235.457 239.646,143.908 235.335,95.56 231.568,47.376 228.419,0 Z"
                 style="fill:#bfe10e;fill-opacity:1;fill-rule:nonzero;stroke:none"
                 id="path14361"
                 inkscape:connector-curvature="0" /></g></g></g><g
           id="g14367"><g
             id="g14369" /><g
             id="g14379"><g
               clip-path="url(#clipPath14373)"
               id="g14377"><path
                 d="m 247.566,0 c 0.534,35.386 1.248,72.486 2.167,110.724 2.299,94.505 5.77,196.079 8.674,297.776 1.813,63.291 3.049,127.495 3.573,190.955 h -9.63 c 0.992,-62.853 1.632,-126.942 2.142,-190.693 0.808,-104.153 1.211,-208.204 2.14,-304.606 0.347,-35.969 0.762,-70.84 1.223,-104.156 z"
                 style="fill:#fe5411;fill-opacity:1;fill-rule:nonzero;stroke:none"
                 id="path14375"
                 inkscape:connector-curvature="0" /></g></g></g><g
           id="g14381"><g
             id="g14383" /><g
             id="g14393"><g
               clip-path="url(#clipPath14387)"
               id="g14391"><path
                 d="m 287.701,0 c -2.738,26.706 -5.672,54.473 -8.798,83.113 -11.095,102.44 -24.49,214.368 -37.119,326.474 -7.247,64.498 -14.083,128.302 -19.979,189.868 h 10.7 c 4.231,-62.006 8.956,-125.905 13.879,-190.13 8.351,-109.289 17.028,-218.372 24.49,-318.638 2.343,-31.284 4.556,-61.6 6.628,-90.687 z"
                 style="fill:#f0037f;fill-opacity:1;fill-rule:nonzero;stroke:none"
                 id="path14389"
                 inkscape:connector-curvature="0" /></g></g></g><g
           id="g14395"><g
             id="g14397" /><g
             id="g14407"><g
               clip-path="url(#clipPath14401)"
               id="g14405"><path
                 d="m 315.418,0 c -26.552,131.887 -59.987,278.501 -91.708,427.691 -11.742,55.097 -22.594,108.925 -31.794,160.882 -0.644,3.638 -1.28,7.266 -1.908,10.882 H 201.4 C 209.549,543.879 219.206,486.112 229.72,426.884 255.985,278.873 283.665,132.419 305.722,0 Z"
                 style="fill:#b3b3b3;fill-opacity:1;fill-rule:nonzero;stroke:none"
                 id="path14403"
                 inkscape:connector-curvature="0" /></g></g></g><g
           id="g14409"><g
             id="g14411" /><g
             id="g14421"><g
               clip-path="url(#clipPath14415)"
               id="g14419"><path
                 d="m 343.614,0 c -6.879,22.829 -14.11,46.173 -21.662,70.005 -38.287,120.564 -81.782,245.436 -119.989,368.338 -17.4,55.911 -33.019,109.762 -46.048,161.112 h 12.27 c 11.719,-51.918 25.76,-106.16 41.242,-162.258 C 242.309,318 279.629,196.911 312.511,79.649 320.117,52.521 327.37,25.958 334.227,0 Z"
                 style="fill:#00a0c6;fill-opacity:1;fill-rule:nonzero;stroke:none"
                 id="path14417"
                 inkscape:connector-curvature="0" /></g></g></g><g
           id="g14423"><g
             id="g14425" /><g
             id="g14435"><g
               clip-path="url(#clipPath14429)"
               id="g14433"><path
                 d="M 368.487,0 C 364.594,9.402 360.62,18.915 356.569,28.537 302.424,157.06 239,293.836 183,430.331 158.741,489.507 136.974,546.073 119.308,599.455 h 13.33 C 149.012,545.559 169.046,488.629 191.351,429.261 240.937,297.441 296.857,165.215 344.751,40.38 349.981,26.72 355.079,13.258 360.03,0 Z"
                 style="fill:#307c1f;fill-opacity:1;fill-rule:nonzero;stroke:none"
                 id="path14431"
                 inkscape:connector-curvature="0" /></g></g></g><g
           id="g14437"><g
             id="g14439" /><g
             id="g14449"><g
               clip-path="url(#clipPath14443)"
               id="g14447"><path
                 d="m 389.713,0 c -5.88,11.038 -11.888,22.237 -18.014,33.594 -42.685,79.021 -88.883,161.627 -134.392,245.48 -44.099,81.398 -85.133,159.471 -119.348,232.329 -14.485,30.837 -27.497,60.216 -38.88,88.052 h 14.718 c 11.066,-28.977 23.757,-59.561 37.88,-91.657 C 162.785,437.236 199.704,361.839 239.241,283.524 279.872,203.012 321.187,123.388 359.435,46.943 367.411,31.007 375.178,15.354 382.711,0 Z"
                 style="fill:#ffbf00;fill-opacity:1;fill-rule:nonzero;stroke:none"
                 id="path14445"
                 inkscape:connector-curvature="0" /></g></g></g><path
           d="m 353.182,300.965 c 0,-60.172 -48.861,-108.948 -109.138,-108.948 -60.277,0 -109.139,48.776 -109.139,108.948 0,60.171 48.862,108.924 109.139,108.924 60.277,0 109.138,-48.753 109.138,-108.924"
           style="fill:#ffffff;fill-opacity:1;fill-rule:nonzero;stroke:none"
           id="path14451"
           inkscape:connector-curvature="0" /></g></g></g></svg>